<?xml version="1.0" standalone="no"?>
<!DOCTYPE svg PUBLIC "-//W3C//DTD SVG 20010904//EN"
 "http://www.w3.org/TR/2001/REC-SVG-20010904/DTD/svg10.dtd">
<svg version="1.0" xmlns="http://www.w3.org/2000/svg"
 width="474.000000pt" height="900.000000pt" viewBox="0 0 474.000000 900.000000"
 preserveAspectRatio="xMidYMid meet">
<metadata>
Created by potrace 1.10, written by Peter Selinger 2001-2011
</metadata>
<g transform="translate(0.000000,900.000000) scale(0.100000,-0.100000)"
fill="#000000" stroke="none">
<path d="M4105 8495 c-40 -14 -173 -81 -275 -138 -124 -69 -178 -99 -235 -128
-33 -16 -80 -42 -105 -56 -25 -14 -90 -49 -145 -78 -145 -75 -357 -190 -410
-222 -11 -7 -36 -19 -56 -28 -20 -9 -56 -27 -80 -41 -24 -14 -57 -32 -74 -40
-16 -9 -70 -37 -120 -64 -49 -27 -124 -66 -165 -87 -41 -20 -93 -48 -114 -62
-22 -13 -87 -48 -145 -78 -58 -30 -135 -72 -171 -92 -63 -35 -114 -62 -317
-167 -54 -28 -123 -65 -154 -82 -66 -37 -171 -92 -334 -177 -66 -34 -142 -76
-170 -92 -27 -16 -84 -46 -125 -67 -41 -21 -95 -49 -120 -62 -25 -14 -110 -59
-190 -101 -80 -41 -154 -84 -164 -96 -57 -60 -72 -156 -36 -227 11 -21 41 -55
66 -76 42 -35 53 -39 103 -39 49 0 68 7 140 48 46 26 90 47 97 47 12 0 14 -81
15 -482 0 -266 1 -514 2 -552 l2 -70 -45 -28 c-25 -15 -52 -30 -60 -34 -8 -3
-31 -14 -51 -25 -153 -80 -186 -106 -212 -169 -12 -30 -12 -42 0 -80 7 -25 21
-54 31 -65 20 -23 84 -55 112 -55 10 0 62 23 115 50 53 28 98 50 100 50 3 0 5
-184 5 -409 l0 -410 -33 -25 c-17 -13 -43 -29 -57 -35 -14 -6 -52 -26 -85 -45
-33 -19 -78 -44 -100 -56 -22 -12 -55 -36 -72 -53 -29 -27 -33 -37 -33 -83 0
-137 120 -194 256 -123 32 17 63 35 68 40 6 5 20 9 33 9 l23 0 0 -394 0 -393
-67 -6 c-38 -4 -117 -7 -178 -7 -102 -1 -112 -3 -140 -25 l-30 -25 0 -1075 0
-1075 25 -23 c52 -50 97 -55 455 -51 182 2 366 9 409 15 59 8 118 7 220 -1 89
-7 241 -10 411 -6 149 3 741 9 1318 12 l1047 6 0 179 0 179 -26 6 c-15 4 -367
4 -783 0 -1181 -9 -2695 -11 -2708 -3 -18 11 -19 1497 -1 1515 9 9 231 12 935
12 848 0 926 1 951 17 54 33 52 9 52 574 0 290 3 535 6 543 6 15 80 16 781 16
425 0 778 2 783 5 6 4 10 77 10 175 0 144 -2 169 -16 174 -9 3 -90 6 -180 6
l-164 0 0 668 0 667 23 14 c12 8 65 37 117 64 215 112 223 117 247 185 17 45
-2 115 -41 160 -27 30 -34 32 -92 32 -35 0 -65 -4 -68 -9 -9 -13 -167 -92
-178 -89 -12 4 -15 798 -4 817 5 7 23 19 40 27 17 8 38 18 46 23 8 4 47 23 85
42 131 65 173 92 200 134 21 32 26 48 22 83 -6 53 -41 105 -84 126 -60 28 -86
22 -241 -59 -29 -15 -55 -31 -58 -36 -20 -34 -24 49 -24 550 l0 549 78 39
c315 161 352 193 366 306 10 88 -38 170 -123 208 -51 22 -81 23 -136 4z m-545
-1310 l0 -553 -77 -40 c-43 -22 -107 -56 -143 -75 -36 -19 -85 -45 -110 -57
-25 -12 -52 -25 -60 -30 -8 -5 -53 -29 -100 -53 -47 -25 -111 -59 -143 -76
-32 -17 -126 -67 -210 -110 -84 -44 -172 -91 -197 -105 -25 -13 -81 -43 -125
-66 -44 -23 -129 -68 -190 -100 -60 -33 -164 -87 -230 -121 -66 -33 -124 -65
-130 -69 -5 -4 -75 -42 -155 -83 -80 -41 -167 -87 -195 -102 -27 -15 -97 -52
-155 -83 -58 -30 -112 -60 -121 -65 -9 -6 -24 -7 -33 -4 -14 6 -16 56 -16 550
0 448 2 547 14 556 11 10 191 104 339 178 27 13 100 53 162 88 63 36 120 65
128 65 7 0 17 4 23 10 5 5 68 39 139 76 72 37 162 84 200 105 39 20 113 59
165 86 52 27 145 76 205 108 61 32 160 84 220 115 187 98 277 145 350 185 68
38 195 105 343 181 41 21 76 42 78 46 20 32 24 -55 24 -557z m15 -890 c0 -6
-4 -125 -8 -265 -3 -140 -3 -318 1 -395 5 -77 5 -146 1 -154 -4 -8 -47 -36
-95 -61 -128 -67 -250 -132 -319 -170 -33 -18 -103 -56 -155 -83 -52 -28 -112
-61 -133 -74 -21 -13 -48 -28 -60 -34 -12 -5 -49 -24 -82 -42 -33 -19 -109
-60 -170 -92 -60 -32 -126 -67 -145 -78 -19 -11 -73 -40 -120 -65 -47 -25
-110 -59 -140 -76 -30 -18 -89 -49 -130 -70 -41 -21 -91 -47 -110 -58 -19 -12
-78 -43 -130 -71 -52 -28 -111 -59 -130 -70 -94 -51 -223 -119 -298 -157 -46
-24 -99 -54 -119 -67 -65 -44 -63 -58 -63 398 0 370 2 414 17 431 9 10 20 18
25 18 5 0 27 12 51 27 23 15 78 45 122 68 44 23 125 66 180 95 55 30 130 70
167 89 36 20 88 48 115 62 26 15 113 60 193 101 80 42 168 88 195 104 28 15
95 52 150 80 224 117 274 143 370 194 110 59 185 98 320 169 182 96 310 164
340 182 16 10 44 25 60 33 17 7 39 21 50 30 21 17 50 17 50 1z m-3 -1177 c2
-7 0 -139 -5 -293 -4 -154 -7 -405 -5 -558 l3 -277 -559 0 c-537 0 -561 -1
-600 -20 -72 -34 -69 -7 -67 -576 1 -409 -1 -514 -12 -522 -9 -8 -192 -12
-580 -14 -465 -2 -568 -1 -572 10 -3 8 -5 231 -5 497 0 374 3 485 13 493 11 9
78 45 242 132 38 21 99 53 135 73 36 19 81 43 100 53 19 11 40 25 48 32 7 6
22 12 32 12 10 0 21 4 25 9 3 6 18 16 33 24 43 22 190 101 267 143 78 42 155
83 302 161 54 28 118 63 143 76 25 14 79 43 120 65 41 22 113 61 160 86 47 25
112 60 145 77 33 16 74 39 90 49 17 11 36 22 43 25 6 3 18 7 25 10 6 3 39 20
72 39 33 18 119 63 190 101 72 38 144 77 160 87 35 21 51 23 57 6z"/>
</g>
</svg>
