<?xml version="1.0" standalone="no"?>
<!DOCTYPE svg PUBLIC "-//W3C//DTD SVG 20010904//EN"
 "http://www.w3.org/TR/2001/REC-SVG-20010904/DTD/svg10.dtd">
<svg version="1.0" xmlns="http://www.w3.org/2000/svg"
 width="900.000000pt" height="891.000000pt" viewBox="0 0 900.000000 891.000000"
 preserveAspectRatio="xMidYMid meet">
<metadata>
Created by potrace 1.10, written by Peter Selinger 2001-2011
</metadata>
<g transform="translate(0.000000,891.000000) scale(0.100000,-0.100000)"
fill="#000000" stroke="none">
<path d="M2895 6380 c-44 -23 -120 -63 -170 -90 -49 -27 -126 -67 -170 -90
-44 -23 -107 -57 -140 -75 -33 -19 -85 -46 -115 -61 -30 -15 -57 -29 -60 -33
-3 -3 -39 -23 -80 -44 -41 -21 -115 -60 -165 -86 -49 -27 -126 -68 -170 -91
-44 -22 -111 -58 -150 -79 -116 -62 -271 -143 -358 -188 -137 -70 -168 -113
-132 -183 21 -41 70 -49 129 -20 25 12 50 19 56 15 6 -4 10 -100 10 -269 0
-293 6 -269 -76 -312 -57 -30 -104 -72 -104 -92 0 -25 41 -72 62 -72 11 0 36
9 55 21 61 38 63 32 63 -184 0 -205 -1 -209 -50 -231 -53 -23 -117 -66 -127
-87 -10 -20 -9 -28 7 -54 24 -38 60 -43 105 -15 63 39 65 32 65 -169 0 -99 -3
-186 -6 -195 -5 -13 -23 -16 -90 -16 -81 0 -85 -1 -94 -26 -16 -40 -13 -1016
3 -1037 11 -16 76 -17 932 -15 l920 3 0 80 0 80 -545 -2 c-300 -2 -674 -5
-832 -8 -198 -4 -294 -3 -308 5 -20 10 -20 19 -20 375 0 350 1 365 19 375 13
6 174 10 455 10 423 0 437 1 456 20 19 19 20 33 20 275 l0 255 378 2 377 3 0
80 0 80 -85 5 -85 5 -3 305 c-1 168 0 315 3 326 2 12 22 30 42 41 140 71 163
95 144 142 -21 49 -44 55 -105 26 -91 -43 -86 -52 -86 164 0 104 3 196 6 204
3 9 40 32 82 53 82 39 111 66 112 100 0 53 -70 69 -139 33 -22 -11 -45 -18
-51 -14 -6 4 -10 99 -10 271 l0 264 23 11 c43 19 123 64 155 87 28 21 32 29
32 70 0 53 -5 64 -37 81 -36 18 -64 13 -148 -29z m-183 -337 c2 -9 1 -130 -2
-270 l-5 -255 -50 -28 c-27 -16 -90 -49 -140 -74 -49 -26 -130 -68 -180 -94
-99 -53 -304 -161 -435 -229 -47 -24 -125 -66 -175 -93 -184 -98 -164 -90
-175 -70 -12 22 -13 509 -2 527 4 7 39 29 77 49 39 20 113 59 165 87 52 27
133 70 180 94 47 25 139 73 205 107 66 35 170 89 230 120 61 31 148 77 195
101 94 49 107 53 112 28z m6 -864 c1 -101 0 -194 -3 -205 -2 -12 -22 -31 -42
-41 -61 -31 -171 -91 -268 -144 -49 -27 -112 -60 -140 -75 -27 -14 -70 -37
-95 -50 -25 -14 -85 -47 -135 -74 -49 -26 -117 -62 -150 -80 -60 -33 -105 -57
-245 -131 -41 -21 -81 -37 -87 -34 -10 3 -13 54 -13 204 l0 200 28 19 c15 11
72 43 127 72 55 29 125 66 155 82 30 16 100 53 155 82 55 29 145 76 200 105
55 30 138 74 185 98 95 50 205 108 265 141 22 12 44 21 50 19 6 -2 11 -75 13
-188z m-3 -660 l0 -274 -275 -5 c-198 -4 -281 -9 -297 -18 -23 -13 -23 -14
-23 -265 0 -184 -3 -256 -12 -265 -9 -9 -85 -12 -280 -12 -254 0 -268 1 -278
19 -6 12 -10 109 -10 245 l0 225 27 26 c15 14 35 25 43 25 9 0 20 4 25 9 6 6
30 21 55 34 25 13 72 39 105 57 33 18 85 46 115 62 30 16 96 51 145 78 50 26
117 62 150 79 33 17 96 51 140 75 44 24 116 63 160 86 44 23 105 54 135 71 30
16 60 27 65 25 6 -2 10 -103 10 -277z"/>
<path d="M3419 5876 c-5 -6 -9 -129 -9 -293 l0 -283 163 2 162 3 0 40 0 40
-99 3 c-55 1 -106 8 -113 14 -10 8 -13 30 -11 72 l3 61 87 3 c101 3 113 12
103 72 l-7 40 -82 0 c-50 0 -87 5 -94 12 -7 7 -12 33 -12 60 0 61 13 68 130
68 l91 0 -3 43 -3 42 -148 5 c-87 3 -152 1 -158 -4z"/>
<path d="M4413 5882 c-35 -3 -44 -7 -48 -25 -3 -12 -4 -141 -3 -287 l3 -265
165 0 165 0 0 40 0 40 -107 5 c-58 3 -109 7 -111 10 -5 4 -10 95 -8 127 1 8
30 13 94 15 l92 3 3 53 3 52 -91 0 c-99 0 -95 -2 -103 66 -7 64 -1 68 115 74
l103 5 3 31 c2 17 -3 36 -10 42 -13 11 -185 20 -265 14z"/>
<path d="M4799 5868 c-5 -10 -8 -138 -7 -290 l3 -273 158 -3 157 -3 0 45 0 45
-97 3 -98 3 -5 237 c-3 130 -8 240 -12 244 -4 4 -26 7 -49 8 -29 1 -44 -4 -50
-16z"/>
<path d="M5295 5875 c-55 -24 -86 -67 -92 -127 -3 -32 0 -70 6 -91 12 -35 67
-87 93 -87 7 0 22 -7 32 -15 11 -8 28 -15 37 -15 31 0 89 -41 96 -67 3 -16 0
-36 -10 -52 -13 -22 -24 -26 -68 -29 -57 -3 -84 14 -91 59 -3 21 -9 24 -55 27
-50 3 -53 2 -53 -22 0 -41 36 -110 71 -136 29 -21 45 -24 119 -24 139 -1 190
45 190 170 -1 96 -21 118 -157 174 -96 39 -133 84 -105 126 33 50 138 40 144
-15 3 -24 7 -26 56 -29 50 -3 52 -2 52 22 0 29 -17 73 -39 99 -37 44 -160 62
-226 32z"/>
<path d="M5663 5875 c-9 -7 -13 -24 -11 -45 3 -31 7 -35 33 -38 17 -1 45 -5
62 -8 l33 -5 2 -237 3 -237 50 0 50 0 3 235 c2 172 6 236 15 242 6 5 30 8 52
7 65 -2 65 -1 65 39 0 20 -4 42 -8 47 -10 14 -331 13 -349 0z"/>
<path d="M6200 5867 c-10 -11 -22 -38 -25 -61 -4 -22 -11 -49 -16 -58 -5 -10
-14 -37 -19 -60 -10 -46 -32 -136 -51 -208 -6 -25 -18 -62 -25 -83 -8 -20 -14
-51 -14 -67 0 -29 2 -30 43 -30 56 0 67 9 74 59 7 53 25 63 109 59 l65 -3 22
-55 c22 -54 23 -55 66 -58 48 -4 73 10 53 30 -7 7 -12 23 -12 37 0 15 -7 46
-15 71 -8 25 -21 72 -30 105 -28 104 -46 168 -61 216 -7 26 -14 55 -14 66 0
37 -22 53 -79 57 -43 2 -57 -1 -71 -17z m90 -194 c1 -21 7 -56 15 -78 8 -22
15 -50 15 -63 0 -22 -3 -23 -52 -20 -59 3 -57 -3 -41 98 15 93 63 140 63 63z"/>
<path d="M6595 5868 c-3 -13 -4 -144 -3 -293 l3 -270 50 0 50 0 3 118 3 118
82 -3 82 -3 5 -115 5 -115 50 0 50 0 3 279 c1 192 -1 283 -9 292 -11 14 -64 9
-86 -8 -8 -6 -13 -47 -15 -111 l-3 -102 -80 0 -80 0 -5 107 c-3 58 -7 108 -10
111 -3 2 -24 7 -47 11 -38 6 -43 4 -48 -16z"/>
<path d="M7163 5882 c-17 -2 -36 -9 -42 -16 -8 -9 -10 -100 -9 -287 l3 -274
149 -3 c160 -3 167 -1 161 47 -2 14 -4 29 -4 33 -1 4 -45 9 -98 10 l-98 3 -3
236 c-2 174 -6 239 -15 246 -6 4 -26 7 -44 5z"/>
<path d="M3852 5868 c-11 -15 -10 -537 2 -556 5 -8 47 -12 134 -12 169 1 208
22 243 130 21 66 19 293 -3 341 -24 52 -73 96 -116 103 -70 11 -249 7 -260 -6z
m255 -117 c21 -24 22 -37 23 -162 0 -130 -1 -137 -24 -162 -28 -30 -58 -40
-112 -35 l-39 3 -3 192 c-3 217 -8 205 83 196 38 -4 55 -11 72 -32z"/>
<path d="M7439 5623 c-5 -46 -3 -66 7 -74 7 -5 62 -8 125 -7 l114 3 3 43 3 42
-125 0 c-69 0 -126 -3 -127 -7z"/>
<path d="M4914 5136 c-3 -8 -4 -27 -2 -43 3 -26 7 -28 43 -28 40 0 40 0 40 40
0 39 -1 40 -38 43 -26 2 -39 -1 -43 -12z"/>
<path d="M5064 5136 c-3 -8 -4 -27 -2 -43 3 -26 7 -28 43 -28 40 0 40 0 40 40
0 39 -1 40 -38 43 -26 2 -39 -1 -43 -12z"/>
<path d="M3504 5005 c-17 -8 -45 -30 -62 -49 -37 -43 -47 -111 -40 -292 4
-113 7 -127 31 -163 42 -63 69 -76 157 -76 57 0 83 5 104 18 27 18 28 18 47
-2 23 -24 33 -26 51 -8 10 10 12 47 8 163 l-5 149 -78 3 c-93 3 -109 -5 -105
-57 3 -33 6 -36 38 -41 35 -5 35 -6 34 -53 0 -62 -19 -80 -80 -80 -39 0 -51 4
-71 27 -22 25 -23 35 -23 160 0 150 10 190 51 211 53 28 106 8 124 -46 10 -29
17 -35 52 -39 56 -8 63 -4 63 39 0 49 -47 115 -96 136 -45 18 -157 18 -200 0z"/>
<path d="M3957 5004 c-11 -12 -8 -574 3 -574 6 0 75 -1 155 -1 80 0 150 1 156
1 6 0 9 17 7 43 l-3 42 -105 5 -105 5 -3 69 c-2 48 1 72 10 78 7 5 45 8 83 7
102 -2 97 -4 93 44 l-3 42 -87 3 c-99 3 -102 6 -96 93 l3 44 105 5 105 5 0 45
0 45 -156 3 c-85 1 -158 -1 -162 -4z"/>
<path d="M4406 4995 c-10 -27 -7 -550 3 -561 6 -5 71 -7 158 -4 l148 5 3 37
c4 44 -2 47 -118 50 l-75 3 -5 240 -5 240 -51 3 c-40 2 -53 -1 -58 -13z"/>
<path d="M4968 5003 c-10 -2 -20 -17 -23 -31 -4 -15 -13 -52 -22 -82 -8 -30
-21 -77 -28 -105 -25 -93 -47 -170 -61 -215 -8 -25 -14 -55 -14 -68 0 -12 -5
-31 -12 -42 -7 -10 -10 -21 -8 -23 10 -9 88 -14 100 -7 7 4 20 32 30 61 l19
54 82 0 83 0 12 -49 c16 -63 25 -70 76 -67 51 3 63 12 50 37 -10 20 -23 68
-71 264 -6 25 -15 54 -20 65 -9 23 -28 91 -41 149 -4 22 -16 46 -26 53 -17 12
-89 16 -126 6z m83 -193 c15 -55 31 -116 36 -142 l5 -28 -61 0 c-69 0 -74 7
-46 73 8 20 15 50 15 66 0 16 3 37 6 46 9 23 37 14 45 -15z"/>
<path d="M5387 4998 c-16 -12 -17 -38 -15 -288 l3 -275 42 -6 c24 -3 48 -2 54
2 7 4 10 55 10 153 -1 81 1 151 4 157 9 14 46 -26 73 -81 13 -25 39 -72 58
-105 19 -33 39 -71 45 -85 6 -13 16 -28 22 -32 20 -13 114 -9 119 5 10 27 2
547 -9 558 -6 6 -30 9 -54 7 l-44 -3 -5 -163 c-3 -89 -9 -162 -14 -163 -5 0
-25 28 -44 63 -44 80 -103 191 -121 226 -8 15 -19 30 -25 34 -18 12 -81 9 -99
-4z"/>
<path d="M5962 4998 c-9 -12 -12 -83 -10 -289 l3 -274 125 -3 c146 -3 156 -2
197 35 55 49 73 115 73 261 0 113 -3 133 -24 178 -39 84 -66 97 -220 102 -108
4 -134 2 -144 -10z m244 -119 l29 -30 0 -135 0 -136 -33 -29 c-27 -24 -41 -29
-82 -29 -45 0 -52 3 -60 26 -11 27 -14 322 -4 348 5 12 20 16 63 16 51 0 61
-3 87 -31z"/>
<path d="M6503 5003 c-10 -3 -13 -71 -13 -288 l0 -284 161 -3 c177 -3 182 -2
177 54 l-3 33 -110 5 -110 5 -3 67 c-3 60 -1 68 19 79 14 7 46 10 85 6 73 -5
83 -1 86 39 3 48 -6 54 -91 54 -94 0 -103 7 -99 82 l3 53 105 3 c65 2 107 7
111 14 8 13 4 61 -6 78 -6 10 -288 13 -312 3z"/>
<path d="M6957 5003 c-13 -12 -8 -571 4 -575 7 -2 30 -1 53 2 l41 5 3 89 c3
92 12 116 41 116 18 0 61 -39 61 -55 0 -5 16 -41 35 -81 35 -72 35 -72 80 -76
25 -2 49 -2 55 0 15 5 12 38 -5 52 -8 7 -15 19 -15 26 0 8 -13 40 -30 71 -37
69 -37 78 -2 108 20 16 33 41 42 79 27 114 -26 218 -122 237 -52 10 -232 12
-241 2z m238 -119 c29 -44 30 -88 4 -123 -22 -30 -27 -32 -79 -29 l-55 3 -3
74 c-2 41 -1 80 2 88 4 9 23 13 60 13 47 0 56 -3 71 -26z"/>
<path d="M6827 4166 c-26 -29 -43 -56 -40 -60 3 -3 62 -6 130 -6 l124 0 54 51
c30 28 52 55 49 60 -3 5 -65 9 -138 9 l-134 0 -45 -54z"/>
<path d="M6775 4030 c-75 -9 -159 -27 -182 -38 -10 -5 -40 -20 -67 -33 -66
-32 -138 -106 -173 -177 -24 -50 -28 -71 -31 -169 -3 -105 -2 -116 22 -165 15
-29 32 -60 39 -68 20 -26 100 -85 137 -102 75 -35 109 -48 125 -48 9 0 25 -5
36 -10 10 -6 38 -15 61 -20 149 -33 177 -39 208 -51 19 -7 55 -19 79 -28 24
-9 60 -31 79 -48 33 -32 35 -35 29 -85 -12 -98 -96 -148 -247 -148 -151 0
-245 49 -271 142 -21 76 -25 77 -184 66 -159 -10 -174 -17 -156 -69 6 -17 11
-41 11 -51 0 -46 70 -162 130 -215 53 -47 166 -97 260 -114 89 -17 279 -22
340 -9 84 17 182 50 215 71 17 10 39 23 51 28 27 12 144 140 144 158 0 7 8 26
18 40 14 22 17 49 17 148 -1 127 -5 141 -64 223 -31 45 -152 122 -189 122 -10
0 -22 4 -28 10 -5 5 -30 14 -54 19 -60 13 -127 30 -170 44 -19 6 -53 14 -75
18 -76 13 -167 52 -207 88 -23 21 -28 33 -28 74 0 61 11 81 62 113 39 25 50
27 157 26 93 0 123 -4 153 -18 44 -23 73 -58 83 -102 8 -39 36 -57 64 -42 11
5 36 10 56 10 30 0 136 20 193 36 6 2 12 19 12 37 0 99 -113 232 -242 285 -42
18 -88 32 -102 32 -13 0 -35 4 -48 9 -34 13 -194 20 -263 11z"/>
<path d="M3417 3993 c-11 -11 -8 -1381 3 -1385 5 -1 80 -2 165 0 l155 3 0 217
0 217 50 53 c28 28 58 52 68 52 18 0 131 -148 262 -341 8 -12 34 -48 58 -80
23 -33 42 -63 42 -67 0 -5 10 -18 23 -30 21 -19 33 -21 202 -22 99 -1 185 -1
192 -1 19 1 5 28 -60 117 -130 179 -290 405 -297 419 -3 6 -24 38 -48 71 -23
32 -63 87 -87 122 -43 59 -56 96 -37 104 5 2 49 48 97 103 48 55 134 150 190
210 162 175 205 225 205 235 0 6 -71 10 -188 10 l-189 0 -39 -42 c-22 -24 -71
-81 -109 -128 -39 -46 -77 -91 -85 -100 -9 -9 -42 -49 -75 -90 -33 -40 -79
-94 -102 -119 -24 -25 -43 -49 -43 -53 0 -5 -7 -8 -15 -8 -13 0 -15 35 -15
254 0 140 -3 261 -6 270 -5 14 -29 16 -158 16 -84 0 -156 -3 -159 -7z"/>
<path d="M4827 3994 c-4 -4 -7 -222 -7 -485 0 -409 2 -484 16 -530 47 -159
121 -248 271 -331 18 -10 41 -18 51 -18 10 0 22 -4 28 -9 17 -18 159 -41 249
-41 192 0 356 58 461 165 32 32 94 123 94 138 0 7 4 17 10 23 28 28 34 121 37
602 l4 492 -161 0 -160 0 0 -442 c0 -383 -2 -450 -17 -502 -32 -119 -83 -169
-202 -202 -61 -17 -66 -17 -135 1 -79 21 -145 63 -170 110 -41 78 -41 78 -46
560 l-5 470 -156 3 c-85 1 -158 -1 -162 -4z"/>
</g>
</svg>
